HIERARCHY
ROOT Hips
{
  OFFSET 267.745 86.9975 -272.335
  CHANNELS 6 Xposition Yposition Zposition Zrotation Xrotation Yrotation
  JOINT LeftUpLeg
  {
    OFFSET 8.64259 1.95398 -2.38835
    CHANNELS 3 Zrotation Xrotation Yrotation
    JOINT LeftLeg
    {
      OFFSET 43.7702 0 0
      CHANNELS 3 Zrotation Xrotation Yrotation
      JOINT LeftFoot
      {
        OFFSET 40.6238 0 0
        CHANNELS 3 Zrotation Xrotation Yrotation
        JOINT LeftToeBase
        {
          OFFSET 12.7242 0 0
          CHANNELS 3 Zrotation Xrotation Yrotation
          End Site
          {
            OFFSET 0 0 0
          }
        }
      }
    }
  }
  JOINT RightUpLeg
  {
    OFFSET -8.2249 1.95398 -2.59336
    CHANNELS 3 Zrotation Xrotation Yrotation
    JOINT RightLeg
    {
      OFFSET 43.5653 0 0
      CHANNELS 3 Zrotation Xrotation Yrotation
      JOINT RightFoot
      {
        OFFSET 40.6238 0 0
        CHANNELS 3 Zrotation Xrotation Yrotation
        JOINT RightToeBase
        {
          OFFSET 12.7242 0 0
          CHANNELS 3 Zrotation Xrotation Yrotation
          End Site
          {
            OFFSET 0 0 0
          }
        }
      }
    }
  }
  JOINT Spine
  {
    OFFSET 0.165834 0.87714 6.61349
    CHANNELS 3 Zrotation Xrotation Yrotation
    JOINT Spine1
    {
      OFFSET 7.38963 1.71661e-005 0
      CHANNELS 3 Zrotation Xrotation Yrotation
      JOINT Spine2
      {
        OFFSET 11.9445 1.14441e-005 0
        CHANNELS 3 Zrotation Xrotation Yrotation
        JOINT Spine3
        {
          OFFSET 14.7254 4.19617e-005 0
          CHANNELS 3 Zrotation Xrotation Yrotation
          JOINT Spine4
          {
            OFFSET 10.9679 0 0
            CHANNELS 3 Zrotation Xrotation Yrotation
            JOINT RightShoulder
            {
              OFFSET 2.46616 -1.6653 3.69651
              CHANNELS 3 Zrotation Xrotation Yrotation
              JOINT RightArm
              {
                OFFSET 13.0012 0 0
                CHANNELS 3 Zrotation Xrotation Yrotation
                JOINT RightForeArm
                {
                  OFFSET 28.7848 1.52588e-005 0
                  CHANNELS 3 Zrotation Xrotation Yrotation
                  JOINT RightHand
                  {
                    OFFSET 26.5688 1.52588e-005 0
                    CHANNELS 3 Zrotation Xrotation Yrotation
                    End Site
                    {
                      OFFSET 0 0 0
                    }
                  }
                }
              }
            }
            JOINT LeftShoulder
            {
              OFFSET 2.38034 -1.29275 -3.7523
              CHANNELS 3 Zrotation Xrotation Yrotation
              JOINT LeftArm
              {
                OFFSET 16.3182 6.10352e-005 0
                CHANNELS 3 Zrotation Xrotation Yrotation
                JOINT LeftForeArm
                {
                  OFFSET 27.0901 0 0
                  CHANNELS 3 Zrotation Xrotation Yrotation
                  JOINT LeftHand
                  {
                    OFFSET 24.5451 1.52588e-005 0
                    CHANNELS 3 Zrotation Xrotation Yrotation
                    End Site
                    {
                      OFFSET 0 0 0
                    }
                  }
                }
              }
            }
            JOINT Neck
            {
              OFFSET 5.0226 -0.0266342 0
              CHANNELS 3 Zrotation Xrotation Yrotation
              JOINT Head
              {
                OFFSET 6.69364 2.86102e-005 0
                CHANNELS 3 Zrotation Xrotation Yrotation
                End Site
                {
                  OFFSET 0 0 0
                }
              }
            }
          }
        }
      }
    }
  }
}
MOTION
Frames:	18
Frame Time:	0.0416667
10.4636 77.0283 9.99103 91.7568 32.1992 109.29 -161.126 58.2163 75.816 -66.132 6.40178 -2.44433 51.9281 -1.3999 17.7967 40.7054 -1.22304 -12.5235 171.105 -6.71436 81.2212 -40.6749 -11.4806 -1.94276 66.1026 5.40385 26.2395 79.3668 -12.1539 1.65449 0.889221 9.70406 -91.5561 7.46822 1.10176 -3.12356 -4.20614 0.963322 -3.16897 -26.7218 1.98927 -2.64856 -6.70914 1.98927 -2.64856 101.913 -45.1973 -82.5856 19.7952 -8.29782 -22.4892 -13.6517 1.34316 -71.8791 -9.78046 -0.0251982 -5.11871 -86.9537 -48.6645 82.8327 -23.3288 0.909883 5.50146 1.39388 9.33081 -24.7281 11.5457 -0.881516 -10.8426 17.8929 0.830732 -21.0373 -16.6929 3.51098 31.771 
27.8171 76.8755 0.726972 88.1845 35.5831 109.943 -160.916 43.3954 74.4928 -66.4506 13.7609 -4.30153 62.3495 17.4726 37.6433 42.9922 -1.61055 -7.51235 172.721 -5.87398 81.3998 -55.8076 -20.3686 -2.61522 44.9113 13.1577 16.5134 46.5797 -4.10829 -3.10099 0.716369 9.53575 -91.0667 7.80622 0.96534 -2.15967 -3.86622 0.869366 -2.20004 -26.3942 1.56968 -1.76987 -6.38155 1.56969 -1.76988 102.409 -46.4258 -81.7686 19.5003 -14.9916 -11.7861 -17.2602 2.14031 -75.1298 -10.6288 -0.025122 -5.12273 -85.9215 -49.6828 84.559 -9.96165 -1.26322 -8.50144 -1.0009 5.67278 -21.0589 12.222 -0.885051 -10.5726 17.8449 0.807579 -18.6772 -15.9685 3.53456 26.8072 
42.4126 78.5612 -7.85558 82.6047 45.0933 107.24 -166.917 32.4027 72.7084 -69.2584 16.7237 -2.92324 64.4104 17.2736 35.7044 54.276 -3.23007 -3.51521 173.94 14.8365 83.898 -90.7715 -18.4704 -3.11302 45.9843 9.83301 2.1301 45.5375 -4.10661 0.521452 -0.340707 10.0657 -90.2544 6.74066 -0.789062 -0.469929 -4.93011 -0.808987 -0.434747 -27.4659 -0.611373 -0.685359 -7.45322 -0.611365 -0.685352 102.349 -50.623 -81.8834 21.5058 -13.6856 -1.96151 -17.2448 -8.32333 -53.8633 -12.2142 -0.12565 -4.12332 -85.8709 -47.286 84.2856 2.27957 -10.4764 -28.8075 -1.19208 1.12441 -23.7443 14.567 -0.963802 -10.2293 25.3941 0.822955 -14.4222 -13.8743 4.20012 21.0533 
57.0637 82.1436 -19.422 70.3617 53.4771 115.71 -176.041 19.5155 78.7416 -59.6513 22.1496 -0.19105 66.1393 15.8581 29.5308 58.2333 -3.79306 -3.07696 176.343 43.3878 86.7177 -100.369 -7.80937 -3.58173 52.1561 3.63965 -3.10807 53.5996 -6.01932 1.11872 -0.929776 9.72708 -90.4215 7.41758 -2.03907 -0.72556 -4.25193 -2.06904 -0.635089 -26.7955 -1.72678 -1.30497 -6.78281 -1.72676 -1.30496 103.565 -51.896 -80.0331 27.2477 -11.0515 14.3681 -18.9203 -23.4218 -39.643 -9.7888 -0.154523 -3.52403 -85.6665 -41.8236 83.7511 2.84508 -18.6859 -46.5556 3.07138 2.61136 -34.9382 15.9341 -1.3515 -12.1865 26.6618 -0.292507 -11.0914 -14.3506 2.33492 16.8918 
72.565 86.3313 -34.9897 64.4021 55.7151 124.797 -179.11 -0.259786 90.1139 -35.7062 27.3495 4.78035 49.3323 -2.99287 6.56606 49.3622 -2.44495 -11.159 -179.205 57.0777 86.9361 -79.6183 -7.79107 -2.92655 59.1557 4.09816 10.1346 58.2714 -7.23875 -0.0473404 -1.37451 9.26405 -91.0681 8.31639 -3.21346 -1.92058 -3.35174 -3.29487 -1.77721 -25.8968 -2.48786 -2.79759 -5.88419 -2.48785 -2.7976 102.057 -49.0181 -82.3486 35.1994 -10.1841 32.2651 -15.337 -17.7968 -39.3666 -6.94318 0.0133547 -5.97969 -83.9136 -40.4619 86.5022 4.70539 -20.1145 -42.1524 9.30146 1.13479 -63.021 17.7335 -1.27866 -11.2111 25.5124 1.06307 -11.8022 -17.3237 3.18879 17.8534 
88.1931 88.3733 -52.1981 69.4298 54.1601 121.086 178.319 -10.8507 89.8681 -40.9648 19.9084 7.17785 35.6263 -13.0616 -0.0945996 38.3608 -1.09585 0.752995 175.688 52.8259 90.0993 -43.3761 -11.6105 2.93808 54.8304 8.90496 18.924 73.8232 -9.34389 6.42161 -1.42795 9.29394 -91.3066 8.24432 -3.4245 -2.3815 -3.42401 -3.52598 -2.22842 -25.9642 -2.55081 -3.30038 -5.95152 -2.55082 -3.30039 100.543 -48.924 -84.7291 35.3216 -10.7182 33.4348 -8.01529 -8.47403 -39.0287 -5.20065 0.0649522 -7.35288 -82.2808 -43.1107 89.513 0.329088 -8.40477 -26.3102 7.01742 -2.6768 -79.8594 16.5616 -0.771705 -8.35507 26.9776 1.97391 -14.5892 -22.2594 3.77808 22.5185 
102.894 87.4696 -68.7279 78.3106 52.5989 112.733 179.984 -1.49763 87.9012 -83.5305 9.70229 4.10175 44.5425 -6.29688 6.77662 33.5155 -0.375825 -2.05977 165.26 44.9358 95.3789 -46.1239 -12.3104 8.82262 55.025 7.52079 11.0275 48.3932 -5.02871 -1.97464 -0.999132 9.73637 -91.2213 7.37022 -2.52293 -2.2886 -4.30009 -2.62116 -2.17537 -26.8296 -1.7188 -2.94071 -6.81695 -1.71879 -2.94072 102.092 -53.0809 -82.2799 28.406 -11.4036 18.8788 -4.7596 -4.3809 -39.9208 -5.43955 0.0516025 -6.96976 -83.5503 -48.4576 88.0379 -9.01053 6.76322 -15.787 6.66203 1.34339 -54.6723 12.3668 -0.996424 -11.3656 26.9756 1.89749 -15.8456 -20.6005 4.18005 24.8085 
117.283 85.4357 -84.5684 81.8856 49.8058 114.747 -179.896 23.1698 91.9422 -113.941 8.91111 2.70641 49.4279 -0.233192 16.465 46.688 -2.10219 -2.39951 166.303 35.135 100.687 -59.211 -20.4076 7.58182 62.8856 -0.763165 -0.621544 62.2138 -6.95526 6.55613 -0.293762 9.78255 -91.8102 7.2704 -1.3672 -3.50163 -4.40438 -1.51987 -3.43818 -26.9022 -0.252454 -3.7503 -6.88952 -0.252451 -3.7503 103.04 -53.3804 -80.8593 22.3345 -9.92153 -0.95084 -10.015 -7.71308 -45.0793 -5.78407 -0.033337 -4.96422 -84.0455 -54.7621 87.9535 -18.7264 9.39843 -4.98146 0.69688 19.6399 -21.9316 11.172 -0.804822 -10.2452 26.9222 3.03625 -11.6361 -19.3113 4.70422 19.4991 
132.275 86.6992 -102.601 79.696 46.9356 112.909 175.167 47.395 93.6541 -105.459 6.76912 3.00633 56.1698 5.37044 20.1941 54.8626 -2.77588 1.42449 173.573 17.1639 96.325 -52.1296 -15.9964 2.95075 71.0509 -1.44046 9.12286 68.1256 -9.21464 2.38409 0.211907 8.95105 -91.2935 8.97987 -0.154551 -2.57533 -2.69366 -0.267703 -2.56605 -25.2094 0.626431 -2.50282 -5.19678 0.626439 -2.50282 102.919 -50.3454 -80.9966 22.2503 -9.35655 -7.08188 -11.9191 -1.60417 -61.5415 -6.11516 0.0193031 -5.99286 -82.9705 -54.1958 89.4541 -26.6312 8.4137 14.2382 1.22544 32.1693 -18.6033 7.83661 -0.477513 -8.76059 23.8192 1.81962 -10.8874 -22.5099 2.91201 16.134 
147.887 90.8683 -122.034 82.5521 48.8299 104.925 175.774 47.9041 92.3445 -63.1356 7.96442 3.43658 62.9556 8.48454 15.2929 57.2091 -2.37003 6.10064 174.433 -8.06899 88.1666 -30.8835 -15.4029 -0.735192 54.1358 9.16737 14.5051 53.0028 -6.03009 -0.350841 0.660953 8.59814 -90.4429 9.68107 1.11748 -0.961725 -1.98976 1.07409 -1.00999 -24.5277 1.35484 -0.581392 -4.51501 1.35484 -0.581392 104.685 -49.5633 -78.2139 21.5734 -13.9409 -2.95521 -16.0148 3.94342 -75.8355 -4.51748 0.0384146 -7.10173 -85.2827 -49.7332 85.5295 -27.6339 7.74466 26.3095 2.73729 31.9799 -21.9085 5.67121 -0.448397 -9.40087 15.7985 -1.60539 -10.7373 -18.2885 -0.326068 13.9581 
163.065 92.668 -140.865 87.8399 46.8467 98.8911 179.799 37.9171 95.058 -17.8412 14.6168 1.62633 53.2258 -1.16703 10.2812 65.0808 -2.32697 8.55958 173.537 -18.6072 84.9663 -43.7949 -13.8994 -3.74862 46.256 10.831 13.2261 45.2962 -4.00825 1.15865 0.906485 8.56083 -89.879 9.75233 1.86189 0.0927413 -1.91729 1.86414 0.0106791 -24.4622 1.74789 0.648199 -4.44951 1.74789 0.648196 104.504 -49.113 -78.4756 21.4468 -22.9543 -0.00977785 -19.0534 6.19222 -76.3362 -3.43968 0.040781 -7.86443 -86.3022 -48.9392 83.8726 -21.8227 7.15072 26.4704 0.033714 27.4391 -19.2987 2.35641 -0.340941 -10.4293 11.1594 -2.44659 -13.9316 -17.8413 -0.802109 14.151 
177.068 90.1288 -157.754 94.9761 47.8073 90.8095 -173.837 37.6569 92.6144 -27.8861 10.7627 -1.68355 52.7248 -3.14656 10.5946 59.2312 -1.78999 8.86485 175.748 -11.587 85.4967 -87.0749 -16.0399 -4.72818 40.8548 12.7749 9.2841 39.583 -2.61667 5.26254 0.311939 9.0399 -89.2252 8.78462 0.96613 1.47319 -2.88692 1.03003 1.42924 -25.414 0.478818 1.69537 -5.40138 0.478836 1.69537 103.84 -49.3386 -79.5289 25.5442 -24.2643 4.60052 -22.1574 1.13012 -67.3583 -4.05495 -0.0101591 -5.6172 -86.6788 -46.6919 82.9286 -17.0104 8.57776 14.6248 -2.17662 27.0129 -15.7235 9.10886 -0.60503 -9.60219 12.0496 -2.00356 -18.3216 -18.4764 0.651378 15.03 
189.527 85.2807 -174.641 102.744 55.584 75.0412 -170.781 34.9125 79.0566 -54.5019 22.9772 -3.51105 57.8149 5.67639 29.2644 49.62 -2.6076 -2.43373 173.96 7.12217 92.6871 -117.391 -23.2852 -2.81395 37.4326 15.2328 10.2539 38.4382 -2.38079 4.986 -0.795423 9.64809 -88.2121 7.58121 -0.811787 3.57036 -4.0944 -0.653952 3.60256 -26.6004 -1.84688 3.16201 -6.58779 -1.84686 3.16201 104.878 -53.3156 -78.1057 27.1287 -14.3054 10.8461 -18.0288 -10.5578 -49.1175 -5.2706 -0.0275281 -5.00995 -86.8835 -49.8438 83.1298 -2.59449 4.88117 -16.426 -8.43331 31.3622 -3.5486 13.4975 -0.596723 -7.94278 14.1826 -3.91062 -21.1052 -14.9123 0.0935042 17.7235 
201.543 84.5263 -191.336 104.728 56.5556 72.1562 -171.598 21.9686 79.268 -63.3628 23.9743 -2.17001 66.001 17.0627 35.9505 59.3681 -2.30784 6.79151 -178.244 34.3521 82.1045 -114.772 -20.1518 -3.39671 40.321 13.5825 13.4447 36.6392 -2.17121 11.816 -0.728065 9.56976 -88.2793 7.72201 -0.704863 3.42969 -3.95327 -0.553337 3.45734 -26.4596 -1.70253 3.05989 -6.44697 -1.70252 3.05988 106.748 -54.017 -75.3696 28.0521 -6.04821 14.6163 -19.0043 -38.9123 -30.0899 -0.574409 -0.02359 -3.57056 -88.7688 -51.9488 80.6855 -4.78449 -2.23381 -36.0708 2.04673 26.2131 -15.3481 12.4137 -0.553471 -8.13869 4.95554 -5.87931 -22.5793 0.313487 -0.574898 24.2337 
214.572 89.9244 -209.383 112.375 65.8377 69.709 -178.909 5.66293 87.8091 -60.2892 27.4867 4.47506 64.1529 9.35576 20.5911 65.5829 -2.20884 9.21729 172.551 40.2335 85.6951 -79.5037 -9.80994 -1.43098 50.1985 7.86475 6.16155 36.8622 -1.94504 -3.60708 -1.649 9.19903 -89.4772 8.49251 -3.05957 1.22518 -3.17554 -3.00267 1.35874 -25.7392 -3.28619 0.248107 -5.72654 -3.28619 0.248107 108.103 -51.4979 -73.0816 27.8848 -5.22874 20.47 -8.35961 -48.151 -15.8199 -2.5616 -0.0799532 -1.99744 -89.617 -50.46 79.1387 -7.76486 4.51747 -40.0805 7.89027 12.2507 -37.8334 18.5532 -1.98131 -14.5828 -18.8213 -6.03429 -15.2169 30.1519 -1.65222 15.3182 
228.974 94.6562 -229.083 105.073 63.8771 76.4657 -178.768 -4.95899 90.892 -53.6491 16.7045 6.01832 51.6423 -4.69077 3.85995 57.7785 -2.45867 5.8502 176.317 31.5896 84.1008 -27.5571 -13.1872 1.25567 50.9107 8.06493 8.53967 51.471 -6.95247 -2.98517 -1.56164 8.28172 -89.7694 10.3237 -3.00598 0.69904 -1.34399 -2.97232 0.830773 -23.9075 -3.07693 -0.237553 -3.8948 -3.07693 -0.237556 105.741 -48.8345 -76.5008 28.1521 -1.03878 28.5961 -0.554965 -36.7513 -7.38277 -1.78987 -0.0423506 -3.60748 -87.1819 -49.1207 82.5389 3.18165 17.9948 -36.8264 8.98783 -9.66061 -65.5324 26.6724 -7.38437 -29.4812 -50.4845 -4.97212 -10.2565 58.91 -6.33913 3.65404 
243.942 91.4699 -249.26 97.2764 60.1995 74.6339 179.928 -3.80159 81.4176 -69.7492 4.92185 2.96792 60.006 0.937042 10.9155 55.4829 -1.86799 8.90849 176.031 30.1092 79.0735 -0.869022 -45.5847 4.85392 73.6919 -31.0561 -25.8375 27.337 9.99886 -42.1783 -1.69575 7.31159 -88.4786 12.3144 -2.64672 3.33827 0.641867 -2.49726 3.45139 -21.8979 -3.52764 2.38873 -1.88524 -3.52764 2.38873 98.0421 -57.6437 -88.0011 24.1742 -1.34334 30.4468 5.378 -32.6261 0.271922 -0.468539 -0.017033 -3.18652 -82.155 -35.465 88.9749 -6.65725 21.522 -26.5119 -75.8133 3.58298 -89.3288 5.19421 1.0992 -57.3499 -59.3247 -0.915226 -1.91327 56.5894 -1.06433 -7.32477 
259.387 86.9224 -268.46 88.7356 49.9567 73.8894 -170.343 4.83639 75.1917 -89.9321 6.1479 -1.8003 55.6417 -4.15755 17.5953 67.3207 -2.99806 4.64848 179.244 41.8179 75.9031 6.56614 -69.9283 12.501 102.491 -64.0189 -23.8555 15.5499 22.5504 -68.3192 -1.06643 6.27914 -87.5196 14.3047 -0.894942 5.0985 2.62385 -0.669999 5.13281 -19.8448 -2.38429 4.59576 0.167837 -2.38427 4.59575 79.3868 -70.1917 -110.099 11.3458 1.45399 25.9066 4.06366 -36.5158 0.0154202 0.253715 -0.00495481 -2.38428 -76.7064 -19.0607 99.6707 -37.5884 25.0601 -15.5698 -161.725 17.6528 -70.9379 -16.1752 6.09291 -49.6928 33.4397 23.8185 36.5668 -20.2075 9.64763 -93.0981 
